# xmcd
#
# Track frame offsets: 
#        150
#        9963
#        29054
#        44070
#        57061
#        71697
#        86470
#        98312
#        112465
#        128053
#        143829
#        153808
#        168831
#
# Disc length: 2467 seconds
#
# Revision: 0
# Processed by: cddbd v1.5.2PL0 Copyright (c) Steve Scherf et al.
# Submitted via: ExactAudioCopy v0.99pb4
#
DISCID=a509a10d
DTITLE=Keith Sykes - Country Mornign Music
DYEAR=1900
DGENRE=Country
TTITLE0=Very Short Time
TTITLE1=You Got Gold
TTITLE2=Volcano
TTITLE3=Shut UP and Talk to Me
TTITLE4=Everybody Wants To Feel Like You
TTITLE5=Coast of Marseilles
TTITLE6=She Loves To Ride Horses
TTITLE7=Long Monday
TTITLE8=One true Love
TTITLE9=Rainin' (In My soul)
TTITLE10=Country Morning Music
TTITLE11=That Old Songwriter
TTITLE12=(The) Last Line
EXTD=
EXTT0=
EXTT1=
EXTT2=
EXTT3=
EXTT4=
EXTT5=
EXTT6=
EXTT7=
EXTT8=
EXTT9=
EXTT10=
EXTT11=
EXTT12=
PLAYORDER=
